<svg width="31" height="31" fill="none" xmlns="http://www.w3.org/2000/svg"><g clip-path="url(#a)"><path opacity=".8" d="M29.144 0H1.823A1.82 1.82 0 0 0 0 1.819v27.328a1.82 1.82 0 0 0 1.823 1.82h27.32a1.82 1.82 0 0 0 1.823-1.82V1.82A1.82 1.82 0 0 0 29.144 0Z" fill="url(#b)"/><path d="M15.355 27.07c-4.371 0-8.086-3.213-8.84-7.642a.36.36 0 0 0-.327-.3c-1.389-.105-2.477-1.316-2.477-2.755 0-1.367.949-2.513 2.258-2.727a.361.361 0 0 0 .3-.39 7.834 7.834 0 0 1-.039-.771C6.23 7.806 10.323 4 15.355 4c5.031 0 9.121 3.808 9.121 8.486 0 .25-.012.498-.039.772a.36.36 0 0 0 .301.39c1.308.213 2.258 1.36 2.258 2.727 0 1.438-1.088 2.649-2.478 2.755a.36.36 0 0 0-.327.298c-.75 4.429-4.467 7.642-8.836 7.642Z" fill="#FFE888"/><path d="M15.355 4.362c4.832 0 8.764 3.645 8.764 8.125 0 .235-.013.476-.038.737a.718.718 0 0 0 .601.78c1.134.186 1.956 1.183 1.956 2.371 0 1.252-.942 2.306-2.145 2.398a.72.72 0 0 0-.655.596 8.967 8.967 0 0 1-2.92 5.243 8.409 8.409 0 0 1-11.123 0 8.971 8.971 0 0 1-2.927-5.243.718.718 0 0 0-.655-.597c-1.2-.092-2.142-1.145-2.142-2.397 0-1.19.822-2.188 1.956-2.372a.72.72 0 0 0 .601-.78 7.49 7.49 0 0 1-.037-.737c0-4.48 3.933-8.125 8.764-8.125Zm0-.72c-5.24 0-9.486 3.96-9.486 8.844 0 .272.016.541.042.81-1.45.236-2.56 1.523-2.56 3.082 0 1.648 1.239 2.994 2.81 3.115.766 4.512 4.59 7.942 9.194 7.942 4.604 0 8.429-3.43 9.194-7.942 1.57-.12 2.81-1.466 2.81-3.115 0-1.558-1.11-2.846-2.56-3.082.025-.266.04-.534.04-.81 0-4.884-4.246-8.844-9.484-8.844Z" fill="#fff"/><path d="M15.28 24.01c-1.807 0-3.278-1.51-3.278-3.365a.239.239 0 0 1 .24-.252.24.24 0 0 1 .24.252c0 1.592 1.256 2.887 2.798 2.887 1.543 0 2.798-1.295 2.798-2.887a.24.24 0 0 1 .41-.17.24.24 0 0 1 .071.17c0 1.855-1.471 3.365-3.279 3.365ZM14.477 7.28c.26 0 .471-.217.471-.485a.478.478 0 0 0-.471-.485.478.478 0 0 0-.472.485c0 .268.211.485.472.485ZM14.477 8.896c.26 0 .471-.217.471-.485a.478.478 0 0 0-.471-.485.478.478 0 0 0-.472.485c0 .268.211.485.472.485ZM14.477 10.511c.26 0 .471-.216.471-.484a.478.478 0 0 0-.471-.485.478.478 0 0 0-.472.485c0 .268.211.485.472.485ZM16.361 7.28c.26 0 .471-.217.471-.485a.478.478 0 0 0-.47-.485.478.478 0 0 0-.472.485c0 .268.21.485.471.485ZM16.361 8.896c.26 0 .471-.217.471-.485a.478.478 0 0 0-.47-.485.478.478 0 0 0-.472.485c0 .268.21.485.471.485ZM16.361 10.511c.26 0 .471-.216.471-.484a.478.478 0 0 0-.47-.485.478.478 0 0 0-.472.485c0 .268.21.485.471.485ZM13.8 15.022a.24.24 0 0 1-.196-.099c-.558-.765-1.186-1.167-1.867-1.193-1.258-.047-2.341 1.195-2.352 1.208a.24.24 0 0 1-.34.027.24.24 0 0 1-.026-.339c.05-.058 1.238-1.433 2.734-1.376.837.03 1.59.498 2.24 1.39a.24.24 0 0 1-.194.381v.001ZM21.58 15.022a.238.238 0 0 1-.195-.099c-.558-.765-1.186-1.167-1.868-1.193-1.262-.047-2.34 1.195-2.351 1.208a.24.24 0 0 1-.367-.312c.05-.058 1.238-1.433 2.734-1.376.837.03 1.59.498 2.24 1.39a.24.24 0 0 1-.194.382Z" fill="#FF404A"/></g><defs><linearGradient id="b" x1="0" y1="15.483" x2="30.966" y2="15.483" gradientUnits="userSpaceOnUse"><stop stop-color="#FF1500"/><stop offset="1" stop-color="#FF404A"/></linearGradient><clipPath id="a"><path fill="#fff" d="M0 0h30.966v30.966H0z"/></clipPath></defs></svg>